<svg width="90" height="90" viewBox="0 0 90 90" fill="none" xmlns="http://www.w3.org/2000/svg">
<g clip-path="url(#clip0_207_769)">
<path fill-rule="evenodd" clip-rule="evenodd" d="M24.5311 20.828C25.8551 19.601 27.2378 19.8543 28.141 20.828C33.974 27.1166 37.2028 30.4302 37.6161 30.9485C38.2902 31.7938 38.1745 32.8053 37.8251 33.3452C36.1176 35.9842 35.2056 37.7627 34.8354 38.6809C34.2281 40.1874 34.6185 41.7794 35.1839 43.3035C37.1236 48.5314 45.0697 54.3385 48.358 55.5376C49.7494 56.045 51.0938 55.785 51.6645 55.5376C53.3347 54.8137 54.5305 53.7634 55.7395 52.7934C57.1375 51.6717 58.2767 51.6717 59.7165 52.7934C61.1564 53.9151 69.0515 60.4173 70.4361 61.5646C71.8207 62.7119 70.3091 64.7305 69.5878 65.6133C65.9708 70.0401 60.6683 72.1875 53.6041 70.3313C42.0208 67.6511 22.6831 51.9463 18.2834 36.4207C17.6196 32.5067 18.0746 28.9908 20.152 25.7909C22.2293 22.5909 23.2071 22.0551 24.5311 20.828Z" stroke="#415FFF" stroke-width="4" stroke-linejoin="round"/>
</g>
<defs>
<clipPath id="clip0_207_769">
<rect width="90" height="90" fill="white"/>
</clipPath>
</defs>
</svg>
